<svg xmlns="http://www.w3.org/2000/svg" width="1200" height="972" viewBox="0 0 1200 972">
<rect width="1200" height="972" fill="#EEF4FF"/>
<rect x="40" y="40" width="190" height="44" fill="#0B1F3A"/><text x="56" y="69" font-family="'Courier New',ui-monospace,monospace" font-size="20" font-weight="700" fill="#EEF4FF" textLength="84" lengthAdjust="spacingAndGlyphs">ML / CV</text><rect x="268" y="46" width="116" height="44" fill="#0B1F3A"/><rect x="262" y="40" width="116" height="44" fill="#CFE0FF" stroke="#0B1F3A" stroke-width="3"/><text x="278" y="69" font-family="'Courier New',ui-monospace,monospace" font-size="20" font-weight="700" fill="#0B1F3A" textLength="84" lengthAdjust="spacingAndGlyphs">PyTorch</text><rect x="400" y="46" width="176" height="44" fill="#0B1F3A"/><rect x="394" y="40" width="176" height="44" fill="#CFE0FF" stroke="#0B1F3A" stroke-width="3"/><text x="410" y="69" font-family="'Courier New',ui-monospace,monospace" font-size="20" font-weight="700" fill="#0B1F3A" textLength="144" lengthAdjust="spacingAndGlyphs">scikit-learn</text><rect x="592" y="46" width="104" height="44" fill="#0B1F3A"/><rect x="586" y="40" width="104" height="44" fill="#CFE0FF" stroke="#0B1F3A" stroke-width="3"/><text x="602" y="69" font-family="'Courier New',ui-monospace,monospace" font-size="20" font-weight="700" fill="#0B1F3A" textLength="72" lengthAdjust="spacingAndGlyphs">OpenCV</text><rect x="712" y="46" width="176" height="44" fill="#0B1F3A"/><rect x="706" y="40" width="176" height="44" fill="#CFE0FF" stroke="#0B1F3A" stroke-width="3"/><text x="722" y="69" font-family="'Courier New',ui-monospace,monospace" font-size="20" font-weight="700" fill="#0B1F3A" textLength="144" lengthAdjust="spacingAndGlyphs">scikit-image</text><rect x="904" y="46" width="200" height="44" fill="#0B1F3A"/><rect x="898" y="40" width="200" height="44" fill="#CFE0FF" stroke="#0B1F3A" stroke-width="3"/><text x="914" y="69" font-family="'Courier New',ui-monospace,monospace" font-size="20" font-weight="700" fill="#0B1F3A" textLength="168" lengthAdjust="spacingAndGlyphs">Albumentations</text><rect x="268" y="108" width="92" height="44" fill="#0B1F3A"/><rect x="262" y="102" width="92" height="44" fill="#CFE0FF" stroke="#0B1F3A" stroke-width="3"/><text x="278" y="131" font-family="'Courier New',ui-monospace,monospace" font-size="20" font-weight="700" fill="#0B1F3A" textLength="60" lengthAdjust="spacingAndGlyphs">U-Net</text><rect x="376" y="108" width="80" height="44" fill="#0B1F3A"/><rect x="370" y="102" width="80" height="44" fill="#CFE0FF" stroke="#0B1F3A" stroke-width="3"/><text x="386" y="131" font-family="'Courier New',ui-monospace,monospace" font-size="20" font-weight="700" fill="#0B1F3A" textLength="48" lengthAdjust="spacingAndGlyphs">YOLO</text><rect x="472" y="108" width="92" height="44" fill="#0B1F3A"/><rect x="466" y="102" width="92" height="44" fill="#CFE0FF" stroke="#0B1F3A" stroke-width="3"/><text x="482" y="131" font-family="'Courier New',ui-monospace,monospace" font-size="20" font-weight="700" fill="#0B1F3A" textLength="60" lengthAdjust="spacingAndGlyphs">NumPy</text><rect x="580" y="108" width="104" height="44" fill="#0B1F3A"/><rect x="574" y="102" width="104" height="44" fill="#CFE0FF" stroke="#0B1F3A" stroke-width="3"/><text x="590" y="131" font-family="'Courier New',ui-monospace,monospace" font-size="20" font-weight="700" fill="#0B1F3A" textLength="72" lengthAdjust="spacingAndGlyphs">Pandas</text><rect x="40" y="186" width="190" height="44" fill="#0B1F3A"/><text x="56" y="215" font-family="'Courier New',ui-monospace,monospace" font-size="20" font-weight="700" fill="#EEF4FF" textLength="48" lengthAdjust="spacingAndGlyphs">CODE</text><rect x="268" y="192" width="104" height="44" fill="#0B1F3A"/><rect x="262" y="186" width="104" height="44" fill="#CFE0FF" stroke="#0B1F3A" stroke-width="3"/><text x="278" y="215" font-family="'Courier New',ui-monospace,monospace" font-size="20" font-weight="700" fill="#0B1F3A" textLength="72" lengthAdjust="spacingAndGlyphs">Python</text><rect x="388" y="192" width="80" height="44" fill="#0B1F3A"/><rect x="382" y="186" width="80" height="44" fill="#CFE0FF" stroke="#0B1F3A" stroke-width="3"/><text x="398" y="215" font-family="'Courier New',ui-monospace,monospace" font-size="20" font-weight="700" fill="#0B1F3A" textLength="48" lengthAdjust="spacingAndGlyphs">Bash</text><rect x="484" y="192" width="68" height="44" fill="#0B1F3A"/><rect x="478" y="186" width="68" height="44" fill="#CFE0FF" stroke="#0B1F3A" stroke-width="3"/><text x="494" y="215" font-family="'Courier New',ui-monospace,monospace" font-size="20" font-weight="700" fill="#0B1F3A" textLength="36" lengthAdjust="spacingAndGlyphs">SQL</text><rect x="568" y="192" width="116" height="44" fill="#0B1F3A"/><rect x="562" y="186" width="116" height="44" fill="#CFE0FF" stroke="#0B1F3A" stroke-width="3"/><text x="578" y="215" font-family="'Courier New',ui-monospace,monospace" font-size="20" font-weight="700" fill="#0B1F3A" textLength="84" lengthAdjust="spacingAndGlyphs">FastAPI</text><rect x="700" y="192" width="104" height="44" fill="#0B1F3A"/><rect x="694" y="186" width="104" height="44" fill="#CFE0FF" stroke="#0B1F3A" stroke-width="3"/><text x="710" y="215" font-family="'Courier New',ui-monospace,monospace" font-size="20" font-weight="700" fill="#0B1F3A" textLength="72" lengthAdjust="spacingAndGlyphs">pytest</text><rect x="820" y="192" width="80" height="44" fill="#0B1F3A"/><rect x="814" y="186" width="80" height="44" fill="#CFE0FF" stroke="#0B1F3A" stroke-width="3"/><text x="830" y="215" font-family="'Courier New',ui-monospace,monospace" font-size="20" font-weight="700" fill="#0B1F3A" textLength="48" lengthAdjust="spacingAndGlyphs">ruff</text><rect x="40" y="270" width="190" height="44" fill="#0B1F3A"/><text x="56" y="299" font-family="'Courier New',ui-monospace,monospace" font-size="20" font-weight="700" fill="#EEF4FF" textLength="60" lengthAdjust="spacingAndGlyphs">INFRA</text><rect x="268" y="276" width="92" height="44" fill="#0B1F3A"/><rect x="262" y="270" width="92" height="44" fill="#3D7BF5" stroke="#0B1F3A" stroke-width="3"/><text x="278" y="299" font-family="'Courier New',ui-monospace,monospace" font-size="20" font-weight="700" fill="#FFFFFF" textLength="60" lengthAdjust="spacingAndGlyphs">Linux</text><rect x="376" y="276" width="116" height="44" fill="#0B1F3A"/><rect x="370" y="270" width="116" height="44" fill="#3D7BF5" stroke="#0B1F3A" stroke-width="3"/><text x="386" y="299" font-family="'Courier New',ui-monospace,monospace" font-size="20" font-weight="700" fill="#FFFFFF" textLength="84" lengthAdjust="spacingAndGlyphs">systemd</text><rect x="508" y="276" width="104" height="44" fill="#0B1F3A"/><rect x="502" y="270" width="104" height="44" fill="#3D7BF5" stroke="#0B1F3A" stroke-width="3"/><text x="518" y="299" font-family="'Courier New',ui-monospace,monospace" font-size="20" font-weight="700" fill="#FFFFFF" textLength="72" lengthAdjust="spacingAndGlyphs">Docker</text><rect x="628" y="276" width="200" height="44" fill="#0B1F3A"/><rect x="622" y="270" width="200" height="44" fill="#3D7BF5" stroke="#0B1F3A" stroke-width="3"/><text x="638" y="299" font-family="'Courier New',ui-monospace,monospace" font-size="20" font-weight="700" fill="#FFFFFF" textLength="168" lengthAdjust="spacingAndGlyphs">Docker Compose</text><rect x="844" y="276" width="92" height="44" fill="#0B1F3A"/><rect x="838" y="270" width="92" height="44" fill="#3D7BF5" stroke="#0B1F3A" stroke-width="3"/><text x="854" y="299" font-family="'Courier New',ui-monospace,monospace" font-size="20" font-weight="700" fill="#FFFFFF" textLength="60" lengthAdjust="spacingAndGlyphs">Nginx</text><rect x="40" y="354" width="190" height="44" fill="#0B1F3A"/><text x="56" y="383" font-family="'Courier New',ui-monospace,monospace" font-size="20" font-weight="700" fill="#EEF4FF" textLength="156" lengthAdjust="spacingAndGlyphs">ORCHESTRATION</text><rect x="268" y="360" width="152" height="44" fill="#0B1F3A"/><rect x="262" y="354" width="152" height="44" fill="#3D7BF5" stroke="#0B1F3A" stroke-width="3"/><text x="278" y="383" font-family="'Courier New',ui-monospace,monospace" font-size="20" font-weight="700" fill="#FFFFFF" textLength="120" lengthAdjust="spacingAndGlyphs">Kubernetes</text><rect x="436" y="360" width="80" height="44" fill="#0B1F3A"/><rect x="430" y="354" width="80" height="44" fill="#3D7BF5" stroke="#0B1F3A" stroke-width="3"/><text x="446" y="383" font-family="'Courier New',ui-monospace,monospace" font-size="20" font-weight="700" fill="#FFFFFF" textLength="48" lengthAdjust="spacingAndGlyphs">Helm</text><rect x="532" y="360" width="128" height="44" fill="#0B1F3A"/><rect x="526" y="354" width="128" height="44" fill="#3D7BF5" stroke="#0B1F3A" stroke-width="3"/><text x="542" y="383" font-family="'Courier New',ui-monospace,monospace" font-size="20" font-weight="700" fill="#FFFFFF" textLength="96" lengthAdjust="spacingAndGlyphs">Minikube</text><rect x="40" y="438" width="190" height="44" fill="#0B1F3A"/><text x="56" y="467" font-family="'Courier New',ui-monospace,monospace" font-size="20" font-weight="700" fill="#EEF4FF" textLength="60" lengthAdjust="spacingAndGlyphs">CI/CD</text><rect x="268" y="444" width="140" height="44" fill="#0B1F3A"/><rect x="262" y="438" width="140" height="44" fill="#2557C7" stroke="#0B1F3A" stroke-width="3"/><text x="278" y="467" font-family="'Courier New',ui-monospace,monospace" font-size="20" font-weight="700" fill="#FFFFFF" textLength="108" lengthAdjust="spacingAndGlyphs">GitLab CI</text><rect x="424" y="444" width="188" height="44" fill="#0B1F3A"/><rect x="418" y="438" width="188" height="44" fill="#2557C7" stroke="#0B1F3A" stroke-width="3"/><text x="434" y="467" font-family="'Courier New',ui-monospace,monospace" font-size="20" font-weight="700" fill="#FFFFFF" textLength="156" lengthAdjust="spacingAndGlyphs">GitLab Runner</text><rect x="628" y="444" width="200" height="44" fill="#0B1F3A"/><rect x="622" y="438" width="200" height="44" fill="#2557C7" stroke="#0B1F3A" stroke-width="3"/><text x="638" y="467" font-family="'Courier New',ui-monospace,monospace" font-size="20" font-weight="700" fill="#FFFFFF" textLength="168" lengthAdjust="spacingAndGlyphs">GitHub Actions</text><rect x="844" y="444" width="248" height="44" fill="#0B1F3A"/><rect x="838" y="438" width="248" height="44" fill="#2557C7" stroke="#0B1F3A" stroke-width="3"/><text x="854" y="467" font-family="'Courier New',ui-monospace,monospace" font-size="20" font-weight="700" fill="#FFFFFF" textLength="216" lengthAdjust="spacingAndGlyphs">Container Registry</text><rect x="40" y="522" width="190" height="44" fill="#0B1F3A"/><text x="56" y="551" font-family="'Courier New',ui-monospace,monospace" font-size="20" font-weight="700" fill="#EEF4FF" textLength="132" lengthAdjust="spacingAndGlyphs">CLOUD / IAC</text><rect x="268" y="528" width="140" height="44" fill="#0B1F3A"/><rect x="262" y="522" width="140" height="44" fill="#2557C7" stroke="#0B1F3A" stroke-width="3"/><text x="278" y="551" font-family="'Courier New',ui-monospace,monospace" font-size="20" font-weight="700" fill="#FFFFFF" textLength="108" lengthAdjust="spacingAndGlyphs">Terraform</text><rect x="424" y="528" width="116" height="44" fill="#0B1F3A"/><rect x="418" y="522" width="116" height="44" fill="#2557C7" stroke="#0B1F3A" stroke-width="3"/><text x="434" y="551" font-family="'Courier New',ui-monospace,monospace" font-size="20" font-weight="700" fill="#FFFFFF" textLength="84" lengthAdjust="spacingAndGlyphs">Ansible</text><rect x="556" y="528" width="176" height="44" fill="#0B1F3A"/><rect x="550" y="522" width="176" height="44" fill="#2557C7" stroke="#0B1F3A" stroke-width="3"/><text x="566" y="551" font-family="'Courier New',ui-monospace,monospace" font-size="20" font-weight="700" fill="#FFFFFF" textLength="144" lengthAdjust="spacingAndGlyphs">Google Cloud</text><rect x="748" y="528" width="176" height="44" fill="#0B1F3A"/><rect x="742" y="522" width="176" height="44" fill="#2557C7" stroke="#0B1F3A" stroke-width="3"/><text x="758" y="551" font-family="'Courier New',ui-monospace,monospace" font-size="20" font-weight="700" fill="#FFFFFF" textLength="144" lengthAdjust="spacingAndGlyphs">Yandex Cloud</text><rect x="40" y="606" width="190" height="44" fill="#0B1F3A"/><text x="56" y="635" font-family="'Courier New',ui-monospace,monospace" font-size="20" font-weight="700" fill="#EEF4FF" textLength="156" lengthAdjust="spacingAndGlyphs">OBSERVABILITY</text><rect x="268" y="612" width="152" height="44" fill="#0B1F3A"/><rect x="262" y="606" width="152" height="44" fill="#3D7BF5" stroke="#0B1F3A" stroke-width="3"/><text x="278" y="635" font-family="'Courier New',ui-monospace,monospace" font-size="20" font-weight="700" fill="#FFFFFF" textLength="120" lengthAdjust="spacingAndGlyphs">Prometheus</text><rect x="436" y="612" width="116" height="44" fill="#0B1F3A"/><rect x="430" y="606" width="116" height="44" fill="#3D7BF5" stroke="#0B1F3A" stroke-width="3"/><text x="446" y="635" font-family="'Courier New',ui-monospace,monospace" font-size="20" font-weight="700" fill="#FFFFFF" textLength="84" lengthAdjust="spacingAndGlyphs">Grafana</text><rect x="568" y="612" width="176" height="44" fill="#0B1F3A"/><rect x="562" y="606" width="176" height="44" fill="#3D7BF5" stroke="#0B1F3A" stroke-width="3"/><text x="578" y="635" font-family="'Courier New',ui-monospace,monospace" font-size="20" font-weight="700" fill="#FFFFFF" textLength="144" lengthAdjust="spacingAndGlyphs">Alertmanager</text><rect x="760" y="612" width="212" height="44" fill="#0B1F3A"/><rect x="754" y="606" width="212" height="44" fill="#3D7BF5" stroke="#0B1F3A" stroke-width="3"/><text x="770" y="635" font-family="'Courier New',ui-monospace,monospace" font-size="20" font-weight="700" fill="#FFFFFF" textLength="180" lengthAdjust="spacingAndGlyphs">VictoriaMetrics</text><rect x="40" y="690" width="190" height="44" fill="#0B1F3A"/><text x="56" y="719" font-family="'Courier New',ui-monospace,monospace" font-size="20" font-weight="700" fill="#EEF4FF" textLength="108" lengthAdjust="spacingAndGlyphs">DATA / HA</text><rect x="268" y="696" width="152" height="44" fill="#0B1F3A"/><rect x="262" y="690" width="152" height="44" fill="#2557C7" stroke="#0B1F3A" stroke-width="3"/><text x="278" y="719" font-family="'Courier New',ui-monospace,monospace" font-size="20" font-weight="700" fill="#FFFFFF" textLength="120" lengthAdjust="spacingAndGlyphs">PostgreSQL</text><rect x="436" y="696" width="116" height="44" fill="#0B1F3A"/><rect x="430" y="690" width="116" height="44" fill="#2557C7" stroke="#0B1F3A" stroke-width="3"/><text x="446" y="719" font-family="'Courier New',ui-monospace,monospace" font-size="20" font-weight="700" fill="#FFFFFF" textLength="84" lengthAdjust="spacingAndGlyphs">Patroni</text><rect x="568" y="696" width="80" height="44" fill="#0B1F3A"/><rect x="562" y="690" width="80" height="44" fill="#2557C7" stroke="#0B1F3A" stroke-width="3"/><text x="578" y="719" font-family="'Courier New',ui-monospace,monospace" font-size="20" font-weight="700" fill="#FFFFFF" textLength="48" lengthAdjust="spacingAndGlyphs">etcd</text><rect x="664" y="696" width="116" height="44" fill="#0B1F3A"/><rect x="658" y="690" width="116" height="44" fill="#2557C7" stroke="#0B1F3A" stroke-width="3"/><text x="674" y="719" font-family="'Courier New',ui-monospace,monospace" font-size="20" font-weight="700" fill="#FFFFFF" textLength="84" lengthAdjust="spacingAndGlyphs">HAProxy</text><rect x="796" y="696" width="152" height="44" fill="#0B1F3A"/><rect x="790" y="690" width="152" height="44" fill="#2557C7" stroke="#0B1F3A" stroke-width="3"/><text x="806" y="719" font-family="'Courier New',ui-monospace,monospace" font-size="20" font-weight="700" fill="#FFFFFF" textLength="120" lengthAdjust="spacingAndGlyphs">keepalived</text><rect x="964" y="696" width="200" height="44" fill="#0B1F3A"/><rect x="958" y="690" width="200" height="44" fill="#2557C7" stroke="#0B1F3A" stroke-width="3"/><text x="974" y="719" font-family="'Courier New',ui-monospace,monospace" font-size="20" font-weight="700" fill="#FFFFFF" textLength="168" lengthAdjust="spacingAndGlyphs">Redis Sentinel</text><rect x="268" y="758" width="152" height="44" fill="#0B1F3A"/><rect x="262" y="752" width="152" height="44" fill="#2557C7" stroke="#0B1F3A" stroke-width="3"/><text x="278" y="781" font-family="'Courier New',ui-monospace,monospace" font-size="20" font-weight="700" fill="#FFFFFF" textLength="120" lengthAdjust="spacingAndGlyphs">MongoDB RS</text><rect x="40" y="836" width="190" height="44" fill="#0B1F3A"/><text x="56" y="865" font-family="'Courier New',ui-monospace,monospace" font-size="20" font-weight="700" fill="#EEF4FF" textLength="96" lengthAdjust="spacingAndGlyphs">SECURITY</text><rect x="268" y="842" width="176" height="44" fill="#3D7BF5"/><rect x="262" y="836" width="176" height="44" fill="#0B1F3A" stroke="#0B1F3A" stroke-width="3"/><text x="278" y="865" font-family="'Courier New',ui-monospace,monospace" font-size="20" font-weight="700" fill="#EEF4FF" textLength="144" lengthAdjust="spacingAndGlyphs">OWASP Top 10</text><rect x="460" y="842" width="224" height="44" fill="#3D7BF5"/><rect x="454" y="836" width="224" height="44" fill="#0B1F3A" stroke="#0B1F3A" stroke-width="3"/><text x="470" y="865" font-family="'Courier New',ui-monospace,monospace" font-size="20" font-weight="700" fill="#EEF4FF" textLength="192" lengthAdjust="spacingAndGlyphs">MITRE ATT&amp;CK</text><rect x="700" y="842" width="200" height="44" fill="#3D7BF5"/><rect x="694" y="836" width="200" height="44" fill="#0B1F3A" stroke="#0B1F3A" stroke-width="3"/><text x="710" y="865" font-family="'Courier New',ui-monospace,monospace" font-size="20" font-weight="700" fill="#EEF4FF" textLength="168" lengthAdjust="spacingAndGlyphs">MaxPatrol SIEM</text><rect x="916" y="842" width="104" height="44" fill="#3D7BF5"/><rect x="910" y="836" width="104" height="44" fill="#0B1F3A" stroke="#0B1F3A" stroke-width="3"/><text x="926" y="865" font-family="'Courier New',ui-monospace,monospace" font-size="20" font-weight="700" fill="#EEF4FF" textLength="72" lengthAdjust="spacingAndGlyphs">PT NAD</text><rect x="268" y="904" width="152" height="44" fill="#3D7BF5"/><rect x="262" y="898" width="152" height="44" fill="#0B1F3A" stroke="#0B1F3A" stroke-width="3"/><text x="278" y="927" font-family="'Courier New',ui-monospace,monospace" font-size="20" font-weight="700" fill="#EEF4FF" textLength="120" lengthAdjust="spacingAndGlyphs">Burp Suite</text><rect x="436" y="904" width="140" height="44" fill="#3D7BF5"/><rect x="430" y="898" width="140" height="44" fill="#0B1F3A" stroke="#0B1F3A" stroke-width="3"/><text x="446" y="927" font-family="'Courier New',ui-monospace,monospace" font-size="20" font-weight="700" fill="#EEF4FF" textLength="108" lengthAdjust="spacingAndGlyphs">Wireshark</text>
<rect x="4" y="4" width="1192" height="964" fill="none" stroke="#0B1F3A" stroke-width="8"/>
</svg>
